HIERARCHY
ROOT Hips
{
	OFFSET 0.000000 0.000000 0.000000 
	CHANNELS 6 Xposition Yposition Zposition Zrotation Yrotation Xrotation
	JOINT LeftUpLeg
	{
		OFFSET 1.363060 -1.794630 0.839290 
		CHANNELS 3 Zrotation Yrotation Xrotation
		JOINT LeftLeg
		{
			OFFSET 2.448110 -6.726130 0.000000 
			CHANNELS 3 Zrotation Yrotation Xrotation
			JOINT LeftFoot
			{
				OFFSET 2.562200 -7.039590 0.000000 
				CHANNELS 3 Zrotation Yrotation Xrotation
				JOINT LeftToeBase
				{
					OFFSET 0.157640 -0.433110 2.322550 
					CHANNELS 3 Zrotation Yrotation Xrotation
					End Site
					{
						OFFSET 0.000000 0.000000 0.000000 
					}
				}
			}
		}
	}
	JOINT RightUpLeg
	{
		OFFSET -1.305520 -1.794630 0.839290 
		CHANNELS 3 Zrotation Yrotation Xrotation
		JOINT RightLeg
		{
			OFFSET -2.542530 -6.985550 0.000000 
			CHANNELS 3 Zrotation Yrotation Xrotation
			JOINT RightFoot
			{
				OFFSET -2.568260 -7.056230 0.000000 
				CHANNELS 3 Zrotation Yrotation Xrotation
				JOINT RightToeBase
				{
					OFFSET -0.164730 -0.452590 2.363150 
					CHANNELS 3 Zrotation Yrotation Xrotation
					End Site
					{
						OFFSET 0.000000 0.000000 0.000000 
					}
				}
			}
		}
	}
	JOINT Spine
	{
		OFFSET 0.028270 2.035590 -0.193380 
		CHANNELS 3 Zrotation Yrotation Xrotation
		JOINT Spine1
		{
			OFFSET 0.056720 2.048850 -0.042750 
			CHANNELS 3 Zrotation Yrotation Xrotation
			JOINT Neck1
			{
				OFFSET -0.054170 1.746240 0.172020 
				CHANNELS 3 Zrotation Yrotation Xrotation
				JOINT Head
				{
					OFFSET 0.104070 1.761360 -0.123970 
					CHANNELS 3 Zrotation Yrotation Xrotation
					End Site
					{
						OFFSET 0.000000 0.000000 0.000000 
					}
				}
			}
			JOINT LeftArm
			{
				OFFSET 3.362410 1.200890 -0.311210 
				CHANNELS 3 Zrotation Yrotation Xrotation
				JOINT LeftForeArm
				{
					OFFSET 4.983000 -0.000000 -0.000000 
					CHANNELS 3 Zrotation Yrotation Xrotation
					JOINT LeftHand
					{
						OFFSET 3.483560 -0.000000 -0.000000 
						CHANNELS 3 Zrotation Yrotation Xrotation
						JOINT LeftHandIndex1
						{
							OFFSET 0.715260 -0.000000 -0.000000 
							CHANNELS 3 Zrotation Yrotation Xrotation
							End Site
							{
								OFFSET 0.000000 0.000000 0.000000 
							}
						}
					}
				}
			}
			JOINT RightArm
			{
				OFFSET -3.136600 1.374050 -0.404650 
				CHANNELS 3 Zrotation Yrotation Xrotation
				JOINT RightForeArm
				{
					OFFSET -5.241900 -0.000000 -0.000000 
					CHANNELS 3 Zrotation Yrotation Xrotation
					JOINT RightHand
					{
						OFFSET -3.444170 -0.000000 -0.000000 
						CHANNELS 3 Zrotation Yrotation Xrotation
						JOINT RightHandIndex1
						{
							OFFSET -0.622530 -0.000000 -0.000000 
							CHANNELS 3 Zrotation Yrotation Xrotation
							End Site
							{
								OFFSET 0.000000 0.000000 0.000000 
							}
						}
					}
				}
			}
		}
	}
}
MOTION
Frames: 9
Frame Time: 0.041667
27.549544 17.537170 0.147576 60.662903 -86.931194 -55.084645 -30.178362 -1.783585 -15.858454 1.848614 11.901633 34.351127 -0.528682 5.920300 -0.295994 0.607000 -4.986700 -13.870600 24.532521 11.114043 -13.824978 -2.969538 -12.323450 36.725303 0.201535 -5.255671 -14.168167 -0.432000 4.217700 -11.690000 0.617440 1.933737 -4.563294 5.197422 1.728102 -9.175352 6.937306 -6.536940 6.230129 4.583900 -3.306600 3.054300 -100.612387 9.712814 -13.214908 20.515516 -31.829780 -8.044932 1.325207 3.607331 41.460895 -7.125000 0.000000 0.000000 88.340828 -7.639084 11.062918 -19.504272 33.343087 -5.370344 -1.111579 1.146119 8.794238 7.125000 0.000000 0.000000 
27.537934 17.545208 0.149139 32.170014 -87.696874 -26.239323 -28.050895 -2.129573 -17.073945 2.077063 12.333936 35.457547 -0.061231 4.993328 -0.165302 0.583500 -4.891100 -13.598100 26.678732 10.802814 -13.376392 -2.709575 -11.933581 35.624936 0.410675 -5.878228 -13.961169 -0.383300 3.975800 -11.008600 0.765091 1.788663 -4.570463 4.882020 1.627811 -8.869019 6.964024 -6.546535 6.119850 4.640100 -3.306200 2.970000 -100.896480 10.617248 -3.407244 19.543774 -32.142621 -7.502898 -0.035810 4.255351 17.668672 -7.125000 0.000000 0.000000 88.433741 -7.471294 9.708991 -18.663893 32.770968 -5.320316 -1.050108 1.486785 8.540863 7.125000 0.000000 0.000000 
27.538604 17.545543 0.149027 16.704616 -87.361571 -10.622039 -27.099954 -2.283811 -17.566052 2.149835 12.462064 35.788508 0.197653 4.473116 0.126460 0.584700 -4.896000 -13.612100 27.603000 10.661595 -13.366471 -2.635462 -11.854733 35.374620 0.504457 -6.182196 -13.980225 -0.296700 3.502300 -9.680400 0.849566 1.620184 -4.580733 4.638653 1.506712 -8.687951 7.079453 -6.581273 6.041591 4.716400 -3.321400 2.911300 -101.392885 14.077950 0.898171 24.200222 -36.793473 -9.512125 -0.390618 4.162666 13.018500 -7.125000 0.000000 0.000000 88.529026 -7.407884 8.438485 -17.958069 32.272125 -5.311278 -0.944656 1.793229 7.983720 7.125000 0.000000 0.000000 
27.535367 17.539850 0.158739 18.462503 -87.299803 -12.493931 -27.285593 -2.354890 -17.549870 2.235355 12.569419 36.158344 0.280563 4.296069 -0.157612 0.556200 -4.777100 -13.273800 27.447292 10.521400 -13.111648 -2.594449 -11.759571 35.127730 0.521008 -6.209936 -13.878420 -0.248000 3.204400 -8.848300 0.826069 1.649743 -4.554376 4.628183 1.522804 -8.664681 7.114541 -6.658906 6.049621 4.748200 -3.360800 2.918100 -101.369404 13.802713 0.610584 23.438374 -36.122242 -9.163110 -0.334642 4.184740 13.845882 -7.125000 0.000000 0.000000 88.616515 -7.421272 7.203205 -17.251961 31.762260 -5.311312 -0.815963 2.071772 7.263829 7.125000 0.000000 0.000000 
27.535479 17.535273 0.167669 18.794986 -87.207956 -12.896763 -27.377544 -2.524648 -17.459958 2.257647 12.600018 36.261279 0.280305 4.294127 -0.317223 0.536900 -4.695100 -13.040900 27.370049 10.456241 -13.041571 -2.600134 -11.760458 35.154420 0.545953 -6.299823 -13.932233 -0.247800 3.203500 -8.845800 0.812307 1.640121 -4.534912 4.566408 1.510733 -8.642725 7.070353 -6.711605 6.048921 4.716200 -3.385900 2.919700 -101.323257 13.626295 0.665616 22.958442 -35.733167 -8.978506 -0.282419 4.208314 14.338737 -7.125000 0.000000 0.000000 88.725458 -7.427422 6.064913 -16.618558 31.311930 -5.325597 -0.652066 2.318679 6.477115 7.125000 0.000000 0.000000 
27.534586 17.532259 0.176600 19.625949 -87.080883 -13.745635 -27.523804 -2.680999 -17.364342 2.248524 12.592985 36.234210 0.243928 4.366289 -0.363060 0.570900 -4.838700 -13.449200 27.213366 10.341991 -13.116217 -2.631457 -11.798947 35.289021 0.537592 -6.284439 -13.982274 -0.264400 3.307600 -9.136400 0.790188 1.564400 -4.516896 4.526489 1.463774 -8.604526 7.031535 -6.680072 6.036699 4.693600 -3.367100 2.908100 -101.559435 12.470448 -1.256647 21.509053 -34.347606 -8.419618 -0.067364 4.280992 16.874177 -7.125000 0.000000 0.000000 88.797764 -7.405372 5.096741 -15.955828 30.984123 -5.478870 -0.314552 2.682850 5.450770 7.125000 0.000000 0.000000 
27.532018 17.528017 0.184637 20.184715 -86.916235 -14.350660 -27.660307 -2.785013 -17.238661 2.244045 12.585341 36.218534 0.240120 4.370369 -0.384456 0.601100 -4.962900 -13.802700 27.086726 10.264515 -13.114375 -2.657689 -11.830039 35.406327 0.531644 -6.289724 -14.092815 -0.267500 3.327100 -9.190900 0.763894 1.490929 -4.487600 4.408511 1.408004 -8.483324 7.060033 -6.676150 6.106708 4.715500 -3.363100 2.962400 -101.626090 11.995101 -1.888237 21.056080 -33.886585 -8.240158 -0.017386 4.299690 17.995369 -7.125000 0.000000 0.000000 88.894073 -7.305288 4.370072 -15.424187 30.482722 -5.340917 -0.378480 2.681220 4.640991 7.125000 0.000000 0.000000 
27.530455 17.523551 0.191558 19.780848 -86.760184 -14.021229 -27.704435 -2.822270 -17.115527 2.239308 12.572045 36.192530 0.272005 4.300957 -0.365049 0.620800 -5.042100 -14.028700 27.069877 10.254302 -13.054555 -2.677491 -11.861789 35.526126 0.567225 -6.435400 -14.245600 -0.271100 3.349400 -9.253100 0.732086 1.461274 -4.466421 4.263588 1.376652 -8.486831 7.096399 -6.748579 6.136373 4.734500 -3.398200 2.976100 -101.003104 10.372286 -3.122958 18.559402 -31.371991 -7.227325 0.137802 4.317970 20.049432 -7.125000 0.000000 0.000000 89.120594 -7.373254 3.578717 -15.042209 30.127160 -5.257692 -0.445852 2.679491 3.844749 7.125000 0.000000 0.000000 
27.530790 17.521654 0.198256 19.992347 -86.654405 -14.272165 -27.777349 -2.799791 -17.059815 2.233410 12.559475 36.163140 0.306897 4.225900 -0.304792 0.650200 -5.158200 -14.360200 27.002011 10.254395 -13.063600 -2.698367 -11.897835 35.646394 0.599874 -6.562211 -14.353099 -0.284400 3.429900 -9.478000 0.696884 1.452518 -4.451500 4.046571 1.351024 -8.470864 7.129988 -6.807946 6.101858 4.738700 -3.425400 2.934100 -100.933747 10.276583 -2.834123 18.658992 -31.469417 -7.266971 0.090151 4.320368 19.959269 -7.125000 0.000000 0.000000 89.405349 -7.515926 2.905250 -14.789867 29.906576 -5.205867 -0.504467 2.673419 3.094975 7.125000 0.000000 0.000000 
